<svg fill="none" height="262" viewBox="0 0 261 262" width="261" xmlns="http://www.w3.org/2000/svg"
    xmlns:xlink="http://www.w3.org/1999/xlink">
    <linearGradient id="a" gradientUnits="userSpaceOnUse" x1="86.9057" x2="124.289" y1="154.741"
        y2="154.741">
        <stop offset="0" stop-color="#ffcbd3" stop-opacity=".72" />
        <stop offset=".9874" stop-color="#ff98a8" stop-opacity=".1" />
    </linearGradient>
    <mask id="b" height="262" maskUnits="userSpaceOnUse" width="261" x="0" y="0">
        <circle cx="130.5" cy="131" fill="#c4c4c4" r="130" />
    </mask>
    <g mask="url(#b)">
        <circle cx="130.5" cy="131" fill="none" r="130" />
        <path
            d="m205.921 254.628c-.548-9.868-8.405-15.716-12.426-24.122-5.664-11.877 4.386-21.928-8.588-33.623-12.975-11.512-6.396-16.812-14.071-26.131-7.858-9.32-23.756-6.579-23.756-6.579h-32.527s-15.8978-2.741-23.7555 6.579c-7.8577 9.319-1.0964 14.619-14.0707 26.131s-2.9238 21.563-8.5886 33.623c-2.3756 4.934-6.2131 8.772-8.9541 13.523-13.157 21.38 6.944 48.242 29.9688 48.242h83.6931c9.137 0 18.091-3.837 24.487-10.416 6.578-7.309 9.137-17.542 8.588-27.227z"
            fill="#ff647c" />
        <path
            d="m130.634 147.91-15.715-2.559v35.086c0 13.888 14.619 17.177 15.715 17.542 1.097-.182 15.533-3.472 15.533-17.36 0-14.436 0-35.085 0-35.085z"
            fill="#f9d3b7" />
        <path
            d="m130.634 125.616 15.715-2.559v35.086c0 6.944-3.654 11.329-7.309 13.888-3.655 2.558-8.041 3.654-12.609 3.472-4.02-.183-9.319-2.01-10.964-5.665-1.097-2.558-.366-6.579-.366-11.512 0-14.437 0-35.086 0-35.086z"
            fill="#f7b7a1" />
        <path
            d="m101.396 118.489s-.182-2.741-5.6646-3.837c-5.4821-1.097-7.4922 17.725 2.5583 19.735 10.0503 2.01 8.9543-11.878 3.1063-15.898z"
            fill="#f4c19f" />
        <path
            d="m152.38 128.722s1.279-2.558 6.761-1.462c5.482 1.097 0 19.188-9.868 17.178-10.05-1.828-3.655-14.254 3.107-15.716z"
            fill="#f4c19f" />
        <path
            d="m119.122 164.721c-15.168-3.106-25.0353-17.908-21.9288-32.892l4.2028-20.832c3.107-15.1673 17.908-25.0351 32.893-21.9286 15.167 3.1065 25.035 17.9086 21.928 32.8926l-4.203 20.832c-2.924 15.167-17.725 25.035-32.892 21.928z"
            fill="#f9d3b7" />
        <path
            d="m148.36 140.417c1.644-8.405-9.32-7.857-22.112-10.416-12.974-2.558-22.842-7.309-24.486 1.097-1.645 8.406 10.416 2.01 23.39 4.751s21.38 13.157 23.208 4.568z"
            fill="#f7b7a1" />
        <path
            d="m166.268 120.865c-7.31-9.868-2.741-9.137-3.838-19.005-1.096-9.8678-11.695-18.2737-11.695-18.2737s10.233-8.4059 2.924-14.4362c-7.31-6.213-14.619-4.5684-14.619-4.5684s-6.761-12.4261-19.553-4.9339c-10.964 6.3958-5.116 14.9844-.731 18.8219-3.837 1.4619-11.878 5.1166-15.532 11.5124-4.9343 8.5886-.731 10.4159-11.1473 16.6289-10.416 6.396 10.5983 16.446 4.9339 24.121-5.6649 7.675-1.8274 12.061-1.8274 12.061s-1.2792-6.396 4.5684-9.137c5.8474-2.741 8.0404-7.309 2.9234-16.812-4.9335-9.319 29.969-.731 39.471-19.9179 1.28 21.3799 18.274 22.4769 10.051 29.2379s-8.04 11.878-3.655 16.629c4.386 4.751.731 10.233.731 10.233s5.3-2.558 2.924-11.878c-2.01-9.319 21.38-10.416 14.071-20.283z"
            fill="#081e29" />
        <path d="m111.995 119.768s5.117 1.645 10.416-1.645" stroke="#081e29" stroke-linecap="round"
            stroke-linejoin="round" stroke-miterlimit="10" stroke-width="2.06821" />
        <path d="m142.695 125.981s-5.3-.548-8.954-5.482" stroke="#081e29" stroke-linecap="round"
            stroke-linejoin="round" stroke-miterlimit="10" stroke-width="2.06821" />
        <path
            d="m134.654 130.001c-.182 1.097.548 2.193 1.645 2.559 1.096.182 2.193-.549 2.558-1.645.183-1.096-.548-2.193-1.644-2.558-1.097-.183-2.376.548-2.559 1.644z"
            fill="#081e29" />
        <path
            d="m113.64 125.798c-.183 1.097.548 2.193 1.644 2.559 1.097.182 2.193-.549 2.559-1.645.182-1.096-.549-2.193-1.645-2.558-1.096-.183-2.193.548-2.558 1.644z"
            fill="#081e29" />
        <path d="m127.345 124.154s-7.492 11.512-2.559 12.426" stroke="#081e29"
            stroke-linecap="round" stroke-linejoin="round" stroke-miterlimit="10"
            stroke-width="1.03411" />
        <path d="m121.314 144.803s4.752.731 7.127 4.386" stroke="#081e29" stroke-linecap="round"
            stroke-linejoin="round" stroke-miterlimit="10" stroke-width="1.03411" />
        <path d="m124.238 145.717s2.01 6.944 4.751 3.289z" fill="#081e29" />
        <path
            d="m122.411 146.63-9.137-.182c-1.462-2.924-4.751-4.569-8.223-3.838-1.096.183-2.01.731-2.741 1.279-1.279-1.096-2.9239-1.461-4.7513-1.096-2.741.548-4.3856 3.107-4.2029 5.665-.3655 0-.731 0-1.0964.183-3.8375.913-6.3958 4.751-5.4821 8.405.9137 3.838 4.7511 6.031 8.5886 5.117.7309 3.472 4.3857 5.665 8.0401 4.751 2.376-.548 4.203-2.193 4.934-4.385.548 0 1.279 0 1.828-.183 2.923-.731 4.751-3.472 4.02-6.213 0-.366-.183-.731-.366-1.097l10.051-5.116z"
            fill="url(#a)" />
        <path
            d="m108.158 254.445 14.618-32.162s5.117-1.827 6.944-10.05c1.828-8.223 5.117-11.33 8.406-13.523 2.193-1.279-.182-5.299-8.771 5.482 4.386-9.867 9.868-10.05 9.502-11.512-.365-1.462-5.482-1.096-10.964 7.309 3.655-8.771 10.233-10.416 9.685-12.06-.731-2.376-10.233 2.741-12.974 12.06.913-9.685 8.406-11.877 7.857-14.436-.548-2.558-10.964 4.934-13.157 18.639-1.279-4.751 3.472-9.867 1.645-11.147-1.827-1.279-8.954 11.33-5.482 25.766-7.309 11.147-20.2838 27.411-20.2838 27.411z"
            fill="#f9c4a0" />
        <path
            d="m68.3209 284.779s-14.4362-8.406-6.0303-19.37c7.8577-10.416 11.3297-30.334 34.3544-29.42 1.8274 0 3.655.731 4.934 1.644 3.655 2.741 8.406 4.569 11.512 5.3 2.01.548 3.655 1.827 4.021 3.106 1.279 3.472 2.375 10.599-3.29 18.822-8.04 11.878-5.116 28.507-21.7454 26.862-16.629-1.462-23.7557-6.944-23.7557-6.944z"
            fill="#ff98a8" />
        <path d="m143.974 157.229s-11.33 11.33-26.862 7.31" stroke="#081e29" stroke-linecap="round"
            stroke-linejoin="round" stroke-miterlimit="10" stroke-width="1.03411" />
    </g>
</svg>