<svg fill="none" height="262" viewBox="0 0 261 262" width="261" xmlns="http://www.w3.org/2000/svg"
    xmlns:xlink="http://www.w3.org/1999/xlink">
    <mask id="a" height="262" maskUnits="userSpaceOnUse" width="261" x="0" y="0">
        <circle cx="130.5" cy="131" fill="#c4c4c4" r="130" />
    </mask>
    <g mask="url(#a)">
        <circle cx="130.5" cy="131" fill="none" r="130" />
        <path
            d="m55.0525 253.369c.5482-9.868 8.4059-15.716 12.4261-24.122 5.6648-11.877-4.3857-21.928 8.5886-33.623 12.9743-11.512 6.3958-16.812 14.0707-26.131 7.8577-9.32 23.7561-6.579 23.7561-6.579h32.527s15.898-2.741 23.755 6.579c7.858 9.319 1.097 14.619 14.071 26.131s2.924 21.563 8.589 33.623c2.375 4.934 6.213 8.772 8.954 13.523 13.157 21.38-6.944 48.242-29.969 48.242 0 0-83.5105 0-83.6932 0-15.5326 5.3-26.6795 3.29-24.4867-10.416 1.8274-9.867-9.1368-17.542-8.5886-27.227z"
            fill="#ff647c" />
        <path
            d="m130.34 146.651 15.715-2.559v35.086c0 13.888-14.619 17.177-15.715 17.542-1.097-.182-15.533-3.472-15.533-17.36 0-14.436 0-35.085 0-35.085z"
            fill="#f9d3b7" />
        <path
            d="m130.34 124.722-15.715-2.558v35.085c0 6.944 3.654 11.33 7.309 13.888 3.655 2.559 8.04 3.655 12.609 3.472 4.02-.183 9.319-2.01 10.964-5.665 1.097-2.558.366-6.578.366-11.512 0-14.436 0-35.085 0-35.085z"
            fill="#f7b7a1" />
        <path
            d="m159.578 117.23s.183-2.741 5.665-3.837c5.482-1.097 7.492 17.725-2.559 19.735-10.05 2.01-8.954-11.878-3.106-15.898z"
            fill="#f4c19f" />
        <path
            d="m108.594 127.463s-1.279-2.558-6.761-1.462c-5.482 1.097 0 19.188 9.868 17.178 10.05-1.828 3.655-14.254-3.107-15.716z"
            fill="#f4c19f" />
        <path
            d="m141.852 163.462c15.168-3.106 25.035-17.908 21.929-32.892l-4.203-20.832c-3.107-15.1674-17.908-25.0352-32.893-21.9286-15.167 3.1065-25.035 17.9086-21.928 32.8926l4.203 20.832c2.924 14.984 17.725 25.035 32.892 21.928z"
            fill="#f9d3b7" />
        <path
            d="m112.615 139.158c-1.645-8.406 9.319-7.857 22.111-10.416 12.974-2.558 22.842-7.309 24.486 1.097 1.645 8.406-10.416 2.01-23.39 4.751-12.609 2.558-21.38 13.157-23.207 4.568z"
            fill="#f7b7a1" />
        <path
            d="m94.7064 119.423c7.3096-9.868 2.7411-9.137 3.8375-19.005 1.0964-9.8675 11.6951-18.2734 11.6951-18.2734s-10.233-8.4059-2.924-14.4362c7.31-6.213 14.619-4.5684 14.619-4.5684s6.761-12.4261 19.553-4.9339c10.964 6.3958 5.117 14.9844.731 18.8219 3.837 1.4618 11.878 5.1166 15.532 11.5124 4.934 8.5886.731 10.4159 11.147 16.6286 10.416 6.396-10.598 16.447-4.933 24.122 5.664 7.675 1.827 12.06 1.827 12.06s1.279-6.396-4.569-9.137c-5.847-2.741-8.04-7.309-2.923-16.811 4.934-9.32-29.969-.731-39.471-19.9187-1.28 21.3807-18.274 22.4767-10.051 29.2377s8.041 11.878 3.655 16.629-.731 10.233-.731 10.233-5.299-2.558-2.924-11.877c2.01-9.137-21.38-10.234-14.0706-20.284z"
            fill="#081e29" />
        <path d="m148.979 118.509s-5.117 1.645-10.416-1.645" stroke="#081e29" stroke-linecap="round"
            stroke-linejoin="round" stroke-miterlimit="10" stroke-width="2.06821" />
        <path d="m118.279 124.722s5.3-.548 8.954-5.482" stroke="#081e29" stroke-linecap="round"
            stroke-linejoin="round" stroke-miterlimit="10" stroke-width="2.06821" />
        <g fill="#081e29">
            <path
                d="m126.32 128.742c.183 1.097-.548 2.193-1.645 2.559-1.096.182-2.193-.549-2.558-1.645-.183-1.096.548-2.193 1.644-2.558 1.28-.183 2.376.548 2.559 1.644z" />
            <path
                d="m147.334 124.539c.183 1.097-.548 2.193-1.644 2.559-1.097.182-2.193-.549-2.558-1.645-.183-1.096.548-2.193 1.644-2.558 1.097-.183 2.193.548 2.558 1.644z" />
            <path
                d="m135.457 144.64c-.183-.731-.183-1.461-.183-2.192 0-2.741 3.289-3.472 4.386-.914.365.731.548 1.279.731 2.01.365 1.096.365 2.193.182 2.924-.365 2.193-2.923 2.741-4.203.913-.365-.73-.731-1.644-.913-2.741z" />
        </g>
        <path d="m133.629 122.895s7.492 11.512 2.559 12.426" stroke="#081e29" stroke-linecap="round"
            stroke-linejoin="round" stroke-miterlimit="10" stroke-width="1.03411" />
        <path
            d="m153.182 209.695-6.03-34.903s-4.569-3.107-4.203-11.512c.365-8.406-2.193-12.244-4.569-15.168-1.827-1.827 1.462-5.116 7.127 7.493-1.827-10.599-6.944-12.244-6.396-13.523.731-1.279 5.665.366 8.772 9.868-1.28-9.502-7.127-12.609-6.213-14.071 1.279-2.01 9.136 5.3 9.319 14.985 1.645-9.685-5.116-13.706-4.02-15.899 1.096-2.192 9.32 7.675 7.858 21.381 2.375-4.386-.731-10.416 1.279-11.147s5.847 13.157-1.279 26.131c4.203 12.609 12.608 31.796 12.608 31.796z"
            fill="#f9c4a0" />
        <path
            d="m183.882 288.637s16.081-7.675 10.781-29.603c-4.934-21.015-3.289-55.735-25.766-64.141-1.644-.731-3.654-.365-5.116.731-4.203 3.106-9.32 3.837-12.426 4.02-2.193 0-4.02 1.462-4.751 3.472-2.011 5.3-4.934 16.629-1.645 32.893 4.751 23.39-2.376 50.07 14.253 54.455 16.447 4.386 24.67-1.827 24.67-1.827z"
            fill="#ff98a8" />
        <path d="m116.086 155.239s10.416 12.061 25.766 8.223" stroke="#081e29"
            stroke-linecap="round" stroke-linejoin="round" stroke-miterlimit="10"
            stroke-width="1.03411" />
    </g>
</svg>