<svg width="177" height="181" viewBox="0 0 177 181" fill="none" xmlns="http://www.w3.org/2000/svg">
<g clip-path="url(#clip0)">
<path d="M36.9499 120.566C51.2499 143.066 82.4499 153.066 107.25 143.166C132.05 133.266 147.65 104.466 142.45 78.2663C138.55 58.4663 123.55 41.2663 104.55 34.3663C84.0499 26.8663 55.1499 30.3663 42.5499 49.5663C28.3499 70.9663 22.3499 97.6663 36.9499 120.566Z" fill="#FFCBD3"/>
<path d="M142.45 78.3663C139.65 64.2663 131.25 51.4663 119.75 42.7663C121.95 47.2663 123.65 52.0663 124.65 56.9663C129.85 83.1663 114.25 111.966 89.4499 121.866C71.1499 129.166 49.4499 125.666 33.5499 114.266C34.5499 116.466 35.7499 118.566 37.0499 120.666C51.3499 143.166 82.5499 153.166 107.35 143.266C131.95 133.266 147.55 104.566 142.45 78.3663Z" fill="#FF647C"/>
<path d="M106.65 44.9663C115.65 51.7663 132.75 19.2663 132.75 19.2663L138.85 23.8663C138.85 23.8663 112.45 49.3663 121.55 56.1663" fill="#FFCBD3"/>
<path d="M142.45 25.5663C144.35 17.2663 129.95 9.26627 128.05 18.3663C126.25 27.1663 140.25 35.1663 142.45 25.5663Z" fill="#FFCBD3"/>
<path d="M135.55 16.9663C133.95 14.6663 128.75 16.3663 130.55 18.8663C132.35 21.2663 137.35 19.5663 135.55 16.9663Z" fill="#FF647C"/>
<path d="M141.85 20.6663C141.85 21.1663 141.75 21.6663 141.65 22.1663C139.85 29.7663 130.75 26.2663 127.95 20.1663C128.15 28.1663 140.45 34.5663 142.45 25.5663C142.85 23.8663 142.55 22.1663 141.85 20.6663Z" fill="#FF647C"/>
<path d="M135.75 85.4663C134.75 96.7663 171.35 94.0663 171.35 94.0663L170.65 101.666C170.65 101.666 135.05 92.7663 134.05 104.066" fill="#FF647C"/>
<path d="M171.15 105.666C179.15 102.966 178.45 86.4663 169.65 89.6663C161.25 92.7663 161.85 108.866 171.15 105.666Z" fill="#FF647C"/>
<path d="M174.75 95.1663C175.85 92.5663 171.65 89.1663 170.45 91.9663C169.45 94.7663 173.45 98.1663 174.75 95.1663Z" fill="#FFCBD3"/>
<path d="M174.95 102.566C174.55 102.866 174.05 103.066 173.55 103.166C166.15 105.666 164.25 96.0663 168.05 90.4663C161.35 94.8663 162.45 108.666 171.15 105.666C172.75 105.066 174.05 103.966 174.95 102.566Z" fill="#FFCBD3"/>
<path d="M119.35 124.266C111.35 128.066 127.85 151.666 127.85 151.666L122.45 154.266C122.45 154.266 114.15 126.766 106.15 130.666" fill="#FF647C"/>
<path d="M120.05 156.166C125.15 160.466 135.85 153.366 130.25 148.766C124.75 144.266 114.15 151.166 120.05 156.166Z" fill="#FF647C"/>
<path d="M128.55 154.366C130.75 154.066 131.35 149.866 128.95 150.266C126.65 150.566 126.05 154.666 128.55 154.366Z" fill="#FFCBD3"/>
<path d="M123.65 157.466C123.35 157.266 122.95 157.066 122.65 156.766C117.95 152.866 123.65 147.666 128.95 147.966C123.25 145.166 114.45 151.466 119.95 156.166C121.05 156.966 122.35 157.366 123.65 157.466Z" fill="#FFCBD3"/>
<path d="M98.15 138.366C86.85 138.666 93.65 174.766 93.65 174.766L86.05 174.966C86.05 174.966 90.75 138.566 79.45 138.966" fill="#FF647C"/>
<path d="M82.1499 175.866C85.8499 183.566 102.15 180.866 97.8499 172.566C93.8499 164.566 77.9499 166.966 82.1499 175.866Z" fill="#FF647C"/>
<path d="M85.75 179.366C85.45 178.966 85.1499 178.566 84.9499 178.066C81.5499 171.066 90.9499 167.966 96.9499 171.066C91.7499 164.866 78.25 167.566 82.15 175.866C82.95 177.466 84.25 178.566 85.75 179.366Z" fill="#FFCBD3"/>
<path d="M61.8499 43.4663C72.3499 39.1663 53.0499 7.86628 53.0499 7.86628L60.0499 4.96628C60.0499 4.96628 68.6499 40.6663 79.0499 36.2663" fill="#FFCBD3"/>
<path d="M63.4499 2.76627C57.2499 -3.13373 43.0499 5.16627 49.8499 11.4663C56.5499 17.5663 70.5499 9.56627 63.4499 2.76627Z" fill="#FFCBD3"/>
<path d="M52.4499 4.36626C49.6499 4.56626 48.5499 9.86627 51.5499 9.56627C54.5499 9.36627 55.6499 4.16626 52.4499 4.36626Z" fill="#FF647C"/>
<path d="M58.85 0.766266C59.25 1.06627 59.65 1.36627 60.05 1.76627C65.75 7.16627 58.05 13.2663 51.35 12.5663C58.35 16.4663 70.05 9.16627 63.45 2.76627C62.15 1.56627 60.55 0.966266 58.85 0.766266Z" fill="#FF647C"/>
<path d="M37.65 81.6663C41.45 70.9663 5.34998 64.5663 5.34998 64.5663L7.84998 57.3663C7.84998 57.3663 40.25 74.7663 43.85 63.9663" fill="#FFCBD3"/>
<path d="M8.34995 53.3663C-0.150045 54.0663 -3.45005 70.2663 5.84995 69.2663C14.75 68.3663 18.15 52.5663 8.34995 53.3663Z" fill="#FFCBD3"/>
<path d="M2.24999 62.6663C0.549991 64.8663 3.74999 69.2663 5.54999 66.7663C7.34999 64.3663 4.24999 60.0663 2.24999 62.6663Z" fill="#FF647C"/>
<path d="M3.84998 55.4663C4.34998 55.3663 4.84998 55.2663 5.34998 55.1663C13.15 54.5663 12.65 64.2663 7.64998 68.8663C15.25 66.2663 17.55 52.6663 8.44998 53.3663C6.54998 53.5663 5.04998 54.3663 3.84998 55.4663Z" fill="#FF647C"/>
<path d="M55.35 127.166C48.75 117.966 22.85 143.966 22.85 143.966L18.35 137.766C18.35 137.766 51.05 121.066 44.35 111.966" fill="#FF647C"/>
<path d="M15.4499 135.166C11.1499 142.566 22.5499 154.466 27.0499 146.266C31.3499 138.366 20.3499 126.666 15.4499 135.166Z" fill="#FF647C"/>
<path d="M19.55 145.466C20.45 148.166 25.85 147.966 24.85 145.066C23.85 142.266 18.55 142.366 19.55 145.466Z" fill="#FFCBD3"/>
<path d="M14.5499 140.066C14.6499 139.566 14.8499 139.166 15.1499 138.666C19.0499 131.866 26.8499 137.866 27.6499 144.666C29.8499 136.966 19.9499 127.266 15.3499 135.166C14.5499 136.666 14.3499 138.366 14.5499 140.066Z" fill="#FFCBD3"/>
<path d="M88.1499 37.1663C96.5499 39.0663 98.1499 11.0663 98.1499 11.0663L103.85 12.2663C103.85 12.2663 93.6499 38.3663 102.05 40.1663" fill="#FFCBD3"/>
<path d="M106.95 12.3663C105.65 5.96628 93.15 4.96628 94.65 11.8663C96.25 18.6663 108.45 19.7663 106.95 12.3663Z" fill="#FFCBD3"/>
<path d="M99.3499 8.56627C97.5499 7.46627 94.45 10.3663 96.55 11.4663C98.55 12.5663 101.55 9.86627 99.3499 8.56627Z" fill="#FF647C"/>
<path d="M104.95 9.16628C105.15 9.46628 105.25 9.86628 105.35 10.2663C106.55 16.0663 99.0499 16.5663 95.1499 13.1663C97.8499 18.6663 108.35 19.1663 106.95 12.3663C106.75 11.0663 105.95 9.96628 104.95 9.16628Z" fill="#FF647C"/>
<path d="M127.55 62.9663C132.25 70.1663 152.95 51.2663 152.95 51.2663L156.15 56.1663C156.15 56.1663 130.65 67.7663 135.45 74.9663" fill="#FF647C"/>
<path d="M158.35 58.2663C161.85 52.7663 153.55 43.2663 149.85 49.3663C146.25 55.2663 154.25 64.5663 158.35 58.2663Z" fill="#FF647C"/>
<path d="M155.55 50.2663C154.95 48.1663 150.85 48.1663 151.45 50.3663C152.15 52.5663 156.25 52.6663 155.55 50.2663Z" fill="#FFCBD3"/>
<path d="M159.15 54.5663C159.05 54.9663 158.85 55.2663 158.65 55.5663C155.45 60.5663 149.75 55.7663 149.35 50.5663C147.45 56.3663 154.65 64.0663 158.35 58.1663C159.05 57.1663 159.25 55.8663 159.15 54.5663Z" fill="#FFCBD3"/>
<path d="M74.75 138.966C67.65 134.066 55.75 159.466 55.75 159.466L50.95 156.166C50.95 156.166 70.15 135.766 62.95 130.966" fill="#FF647C"/>
<path d="M48.15 154.966C46.95 161.366 58.25 166.966 59.35 159.966C60.45 153.166 49.45 147.566 48.15 154.966Z" fill="#FF647C"/>
<path d="M53.75 161.266C55.05 162.966 58.95 161.466 57.45 159.666C56.05 157.866 52.25 159.366 53.75 161.266Z" fill="#FFCBD3"/>
<path d="M48.75 158.666C48.75 158.266 48.75 157.866 48.85 157.566C49.95 151.666 57.05 153.966 59.35 158.566C58.95 152.466 49.35 148.066 48.05 154.966C47.85 156.266 48.15 157.566 48.75 158.666Z" fill="#FFCBD3"/>
<path d="M131.45 113.266C127.75 121.066 154.65 128.866 154.65 128.866L152.15 134.166C152.15 134.166 129.05 118.366 125.35 126.166" fill="#FF647C"/>
<path d="M151.45 137.166C157.95 137.366 161.75 125.366 154.65 125.266C147.75 125.266 143.95 136.966 151.45 137.166Z" fill="#FF647C"/>
<path d="M156.85 130.566C158.35 128.966 156.25 125.466 154.65 127.166C153.05 128.866 155.05 132.366 156.85 130.566Z" fill="#FFCBD3"/>
<path d="M155.05 135.866C154.65 135.966 154.25 135.966 153.95 135.966C147.95 135.766 149.15 128.466 153.35 125.366C147.35 126.766 144.55 136.866 151.55 137.066C152.75 137.166 153.95 136.666 155.05 135.866Z" fill="#FFCBD3"/>
<path d="M43.25 58.2663C49.25 52.0663 26.25 36.0663 26.25 36.0663L30.25 31.8663C30.25 31.8663 47.15 54.2663 53.15 47.9663" fill="#FFCBD3"/>
<path d="M31.95 29.2663C25.85 27.0663 18.35 37.1663 25.15 39.4663C31.65 41.6663 38.95 31.8663 31.95 29.2663Z" fill="#FFCBD3"/>
<path d="M24.75 33.7663C22.85 34.7663 23.65 38.8663 25.75 37.6663C27.65 36.5663 26.95 32.5663 24.75 33.7663Z" fill="#FF647C"/>
<path d="M28.15 29.2663C28.55 29.2663 28.85 29.3663 29.25 29.5663C34.85 31.5663 31.35 38.2663 26.45 39.7663C32.55 40.3663 38.55 31.6663 31.95 29.2663C30.65 28.7663 29.35 28.8663 28.15 29.2663Z" fill="#FF647C"/>
<path d="M38.95 107.366C37.85 98.7663 10.95 106.666 10.95 106.666L10.25 100.866C10.25 100.866 38.25 101.766 37.15 93.1663" fill="#FFCBD3"/>
<path d="M9.34997 98.0663C3.74997 101.466 7.04997 113.566 13.05 109.766C18.85 106.066 15.75 94.1663 9.34997 98.0663Z" fill="#FFCBD3"/>
<path d="M8.24992 106.466C7.84992 108.566 11.5499 110.466 11.9499 108.166C12.3499 105.866 8.74992 104.066 8.24992 106.466Z" fill="#FF647C"/>
<path d="M6.94995 100.966C7.24995 100.666 7.54995 100.466 7.84995 100.266C12.95 97.1663 15.95 104.066 14.05 108.866C18.35 104.466 15.25 94.3663 9.24995 97.9663C8.14995 98.7663 7.44995 99.7663 6.94995 100.966Z" fill="#FF647C"/>
<path d="M51.25 64.7663C50.15 64.5663 49.05 64.3663 47.95 64.7663C46.85 65.1663 46.15 66.1663 45.75 67.3663C45.45 68.4663 45.45 69.6663 45.65 70.7663C46.45 75.0663 49.65 78.9663 53.75 80.3663C58.05 81.9663 64.55 79.1663 62.85 73.6663C61.55 69.2663 55.55 65.7663 51.25 64.7663Z" fill="#FF647C"/>
<path d="M114.65 88.8663C115.35 87.5663 115.85 86.0663 115.75 84.6663C115.55 83.1663 114.55 81.7663 113.25 80.9663C111.95 80.1663 110.35 79.7663 108.85 79.6663C102.95 79.1663 96.95 81.9663 93.65 86.8663C90.15 91.9663 91.55 101.266 99.15 100.866C105.45 100.566 111.95 94.0663 114.65 88.8663Z" fill="#FF647C"/>
<path d="M55.05 94.9663C53.35 94.5663 51.65 94.2663 50.05 94.8663C48.35 95.4663 47.15 96.9663 46.55 98.6663C45.95 100.366 45.95 102.166 46.15 103.966C47.05 110.766 51.85 116.866 58.15 119.466C64.75 122.166 74.95 118.266 72.65 109.666C70.65 102.466 61.65 96.7663 55.05 94.9663Z" fill="#FF647C"/>
<path d="M68.4499 85.5663C67.7499 86.1663 67.0499 86.8663 66.7499 87.6663C66.4499 88.5663 66.7499 89.6663 67.2499 90.4663C67.7499 91.2663 68.5499 91.8663 69.4499 92.3663C72.6499 94.1663 76.8499 94.0663 79.9499 92.1663C83.2499 90.1663 84.8499 84.4663 80.3499 82.7663C76.6499 81.2663 71.2499 83.2663 68.4499 85.5663Z" fill="#FF647C"/>
<path d="M80.15 114.766C80.25 115.566 80.55 116.466 81.05 117.066C81.65 117.666 82.55 117.966 83.45 117.866C84.35 117.766 85.15 117.466 85.95 116.966C88.85 115.166 90.65 111.866 90.55 108.466C90.45 104.966 86.65 101.166 83.25 103.866C80.45 106.266 79.65 111.466 80.15 114.766Z" fill="#FF647C"/>
<path d="M73.6499 45.1663C71.4499 45.5663 69.2499 46.2663 67.7499 48.0663C66.1499 49.8663 65.6499 52.6663 66.0499 55.2663C66.4499 57.8663 67.5499 60.3663 68.9499 62.5663C74.2499 71.0663 83.5499 76.3663 92.4499 75.9663C101.75 75.5663 111.05 64.1663 103.05 54.0663C96.3499 45.8663 82.4499 43.5663 73.6499 45.1663Z" fill="#FF647C"/>
<path d="M43.1499 119.866C46.1499 121.266 49.3499 122.466 52.5499 123.366L44.3499 112.066C46.0499 114.366 45.2499 117.066 43.1499 119.866Z" fill="#FFCBD3"/>
<path d="M122.05 44.6663C121.35 46.6663 120.45 48.5663 120.15 50.5663C119.95 51.5663 119.95 52.5663 120.05 53.5663C120.15 54.0663 120.35 54.5663 120.55 54.9663C120.75 55.3663 121.15 55.7663 121.55 56.1663C121.05 55.8663 120.65 55.5663 120.35 55.1663C120.05 54.7663 119.75 54.2663 119.55 53.6663C119.35 53.1663 119.35 52.5663 119.35 52.0663C119.35 51.5663 119.35 50.9663 119.45 50.4663C119.65 49.3663 119.95 48.3663 120.45 47.4663C120.95 46.4663 121.45 45.5663 122.05 44.6663Z" fill="#FF647C"/>
<path d="M106.65 44.9663C107.55 45.4663 108.55 45.7663 109.55 45.6663C110.55 45.5663 111.55 45.2663 112.45 44.7663C113.35 44.2663 114.25 43.7663 115.05 43.1663C115.85 42.4663 116.65 41.8663 117.55 41.2663C116.85 42.0663 116.15 42.8663 115.35 43.5663C114.55 44.2663 113.65 44.8663 112.75 45.3663C111.75 45.8663 110.75 46.1663 109.65 46.1663C109.05 46.1663 108.55 46.0663 108.05 45.8663C107.45 45.6663 107.05 45.3663 106.65 44.9663Z" fill="#FF647C"/>
<path d="M142.45 98.5663C141.55 98.7663 140.65 99.0663 139.85 99.2663C138.95 99.5663 138.15 99.7663 137.35 100.166C136.55 100.566 135.85 101.066 135.25 101.666C134.65 102.266 134.25 103.066 134.05 103.966C133.95 103.066 134.25 102.066 134.85 101.266C135.45 100.466 136.25 99.8663 137.05 99.4663C138.75 98.8663 140.65 98.5663 142.45 98.5663Z" fill="#FF647C"/>
<path d="M135.75 85.4663C135.75 86.4663 136.05 87.2663 136.55 88.0663C137.05 88.7663 137.75 89.4663 138.45 89.9663C139.15 90.4663 140.05 90.9663 140.85 91.3663C141.65 91.7663 142.55 92.1663 143.45 92.5663C142.55 92.4663 141.55 92.2663 140.65 91.8663C139.75 91.5663 138.85 91.1663 138.05 90.5663C137.25 89.9663 136.55 89.2663 136.05 88.3663C135.65 87.4663 135.55 86.3663 135.75 85.4663Z" fill="#FF647C"/>
<path d="M70.7499 32.0663C71.9499 33.2663 73.0499 34.5663 74.4499 35.4663C75.1499 35.9663 75.8499 36.2663 76.6499 36.4663C77.4499 36.6663 78.2499 36.6663 79.0499 36.3663C78.3499 36.8663 77.4499 37.0663 76.5499 36.9663C75.6499 36.8663 74.8499 36.4663 74.0499 36.0663C72.6499 34.9663 71.5499 33.5663 70.7499 32.0663Z" fill="#FF647C"/>
<path d="M61.85 43.4663C62.65 42.9663 63.35 42.3663 63.75 41.5663C64.15 40.7663 64.45 39.9663 64.55 39.0663C64.65 38.1663 64.65 37.2663 64.65 36.3663C64.65 35.4663 64.55 34.5663 64.55 33.5663C65.15 35.3663 65.45 37.1663 65.25 39.1663C65.15 40.0663 64.85 41.0663 64.25 41.8663C63.65 42.6663 62.75 43.2663 61.85 43.4663Z" fill="#FF647C"/>
<path d="M33.35 67.1663C34.35 67.1663 35.35 67.2663 36.35 67.2663C37.35 67.2663 38.35 67.2663 39.25 67.0663C40.15 66.9663 41.15 66.6663 41.95 66.1663C42.75 65.6663 43.45 64.9663 43.85 64.0663C43.65 65.0663 43.05 65.9663 42.25 66.5663C41.45 67.1663 40.35 67.5663 39.35 67.6663C38.35 67.8663 37.35 67.8663 36.35 67.7663C35.35 67.6663 34.35 67.4663 33.35 67.1663Z" fill="#FF647C"/>
<path d="M37.65 81.6663C37.85 80.6663 37.75 79.6663 37.45 78.8663C37.15 77.9663 36.55 77.1663 35.95 76.4663C35.35 75.7663 34.55 75.1663 33.75 74.5663C32.95 73.9663 32.15 73.3663 31.35 72.7663C32.25 73.1663 33.15 73.5663 34.05 74.1663C34.95 74.6663 35.65 75.3663 36.35 76.0663C37.05 76.8663 37.65 77.6663 37.85 78.7663C38.25 79.6663 38.15 80.7663 37.65 81.6663Z" fill="#FF647C"/>
<path d="M55.3499 127.166C54.5499 126.266 53.5499 125.766 52.4499 125.566C51.3499 125.366 50.2499 125.566 49.1499 125.766C46.9499 126.266 44.8499 127.166 42.7499 128.066C44.6499 126.766 46.7499 125.666 49.0499 125.066C50.1499 124.866 51.4499 124.666 52.6499 124.966C53.7499 125.366 54.8499 126.166 55.3499 127.166Z" fill="#FF647C"/>
<path d="M98.8499 32.7663C99.0499 34.2663 99.1499 35.7663 99.5499 37.0663C99.7499 37.7663 100.05 38.3663 100.45 38.9663C100.85 39.5663 101.45 39.9663 102.15 40.2663C101.35 40.2663 100.65 39.8663 100.05 39.3663C99.4499 38.7663 99.1499 38.0663 98.8499 37.3663C98.6499 36.5663 98.5499 35.8663 98.5499 35.0663C98.5499 34.1663 98.6499 33.4663 98.8499 32.7663Z" fill="#FF647C"/>
<path d="M88.1499 37.1663C88.8499 37.1663 89.5499 37.0663 90.1499 36.7663C90.7499 36.4663 91.2499 35.9663 91.7499 35.4663C92.6499 34.4663 93.3499 33.1663 94.2499 31.9663C94.0499 32.6663 93.8499 33.3663 93.5499 34.0663C93.2499 34.7663 92.8499 35.3663 92.3499 35.9663C91.8499 36.5663 91.2499 37.0663 90.4499 37.2663C89.6499 37.4663 88.8499 37.4663 88.1499 37.1663Z" fill="#FF647C"/>
<path d="M138.75 66.7663C137.75 68.0663 136.75 69.1663 135.95 70.5663C135.55 71.2663 135.25 71.9663 135.15 72.6663C135.05 73.3663 135.15 74.1663 135.45 74.8663C134.85 74.2663 134.55 73.4663 134.65 72.5663C134.65 71.6663 134.95 70.8663 135.35 70.1663C135.75 69.4663 136.25 68.7663 136.85 68.2663C137.45 67.6663 138.05 67.1663 138.75 66.7663Z" fill="#FF647C"/>
<path d="M127.55 62.9663C128.15 63.5663 128.85 63.9663 129.65 64.1663C130.45 64.3663 131.25 64.2663 132.05 64.1663C133.65 63.9663 135.25 63.3663 136.85 62.8663C135.45 63.8663 133.85 64.5663 132.15 64.8663C131.25 64.9663 130.35 64.9663 129.55 64.6663C128.65 64.3663 127.95 63.7663 127.55 62.9663Z" fill="#FF647C"/>
<path d="M61.95 141.666C62.65 139.766 63.55 138.066 63.95 136.166C64.15 135.266 64.35 134.266 64.25 133.366C64.15 132.466 63.75 131.566 62.95 130.866C63.85 131.266 64.55 132.266 64.75 133.266C64.95 134.266 64.85 135.366 64.55 136.366C64.05 138.366 63.15 140.066 61.95 141.666Z" fill="#FF647C"/>
<path d="M74.7499 138.966C73.9499 138.566 73.0499 138.466 72.1499 138.666C71.3499 138.866 70.5499 139.266 69.7499 139.766C68.2499 140.766 66.9499 142.066 65.5499 143.266C66.5499 141.666 67.7499 140.266 69.3499 139.166C70.1499 138.666 71.0499 138.166 72.0499 138.066C73.0499 137.966 74.0499 138.266 74.7499 138.966Z" fill="#FF647C"/>
<path d="M116.15 138.566C114.85 136.666 113.55 134.766 112.05 133.066C111.25 132.266 110.45 131.466 109.45 130.966C108.45 130.466 107.35 130.266 106.25 130.666C106.75 130.366 107.35 130.166 107.95 130.166C108.25 130.166 108.55 130.166 108.85 130.266C109.15 130.366 109.45 130.466 109.75 130.566C110.85 131.066 111.75 131.866 112.55 132.766C114.15 134.366 115.25 136.466 116.15 138.566Z" fill="#FF647C"/>
<path d="M119.35 124.266C118.45 124.866 117.85 125.866 117.65 126.866C117.45 127.866 117.55 128.966 117.65 130.066C117.95 132.166 118.65 134.266 119.25 136.466C118.15 134.566 117.35 132.466 116.95 130.166C116.75 129.066 116.75 127.866 117.05 126.766C117.45 125.566 118.35 124.566 119.35 124.266Z" fill="#FF647C"/>
<path d="M86.05 147.166C85.75 146.266 85.35 145.366 85.05 144.466C84.65 143.566 84.35 142.766 83.85 141.966C83.35 141.166 82.75 140.466 82.05 139.966C81.35 139.466 80.45 139.066 79.45 138.966C80.35 138.766 81.45 138.966 82.25 139.466C83.15 139.966 83.75 140.766 84.35 141.566C85.35 143.266 85.85 145.266 86.05 147.166Z" fill="#FF647C"/>
<path d="M98.1499 138.366C97.2499 138.566 96.3499 138.866 95.6499 139.466C94.9499 140.066 94.4499 140.766 94.0499 141.566C93.6499 142.366 93.2499 143.266 92.9499 144.066C92.6499 144.966 92.3499 145.866 92.0499 146.766C92.0499 145.866 92.1499 144.866 92.3499 143.966C92.5499 143.066 92.8499 142.166 93.3499 141.266C93.8499 140.366 94.4499 139.566 95.2499 139.066C96.1499 138.466 97.2499 138.266 98.1499 138.366Z" fill="#FF647C"/>
<path d="M131.35 124.166C130.15 124.266 129.05 124.266 128.05 124.466C127.55 124.566 127.05 124.766 126.55 125.066C126.05 125.366 125.65 125.766 125.35 126.166C125.45 125.566 125.75 125.066 126.25 124.666C126.75 124.266 127.25 123.966 127.85 123.866C128.45 123.766 129.05 123.666 129.65 123.766C130.25 123.766 130.85 123.966 131.35 124.166Z" fill="#FF647C"/>
<path d="M131.45 113.266C131.25 113.866 131.25 114.566 131.35 115.066C131.45 115.666 131.65 116.166 132.05 116.766C132.65 117.866 133.55 118.766 134.35 119.766C133.75 119.466 133.25 119.066 132.75 118.666C132.25 118.266 131.85 117.766 131.45 117.166C131.15 116.566 130.85 115.866 130.85 115.266C130.85 114.466 131.05 113.766 131.45 113.266Z" fill="#FF647C"/>
<path d="M44.6499 46.6663C46.0499 47.2663 47.4499 48.0663 48.8499 48.4663C49.5499 48.6663 50.2499 48.7663 51.0499 48.7663C51.7499 48.6663 52.4499 48.4663 53.1499 47.9663C52.7499 48.6663 51.9499 49.0663 51.1499 49.2663C50.3499 49.4663 49.4499 49.3663 48.7499 49.0663C47.9499 48.8663 47.2499 48.4663 46.5499 48.0663C45.8499 47.6663 45.2499 47.1663 44.6499 46.6663Z" fill="#FF647C"/>
<path d="M43.2499 58.2663C43.6499 57.6663 43.8499 56.9663 43.9499 56.3663C44.0499 55.6663 43.9499 55.0663 43.7499 54.3663C43.3499 53.0663 42.6499 51.7663 42.0499 50.4663C42.5499 50.9663 43.0499 51.5663 43.4499 52.1663C43.8499 52.7663 44.1499 53.4663 44.3499 54.1663C44.5499 54.8663 44.6499 55.6663 44.4499 56.4663C44.2499 57.1663 43.8499 57.7663 43.2499 58.2663Z" fill="#FF647C"/>
<path d="M29.0499 99.4663C30.7499 98.7663 32.5499 98.1663 34.1499 97.3663C34.9499 96.9663 35.6499 96.4663 36.2499 95.7663C36.8499 95.0663 37.1499 94.2663 37.1499 93.2663C37.4499 94.1663 37.2499 95.2663 36.6499 96.0663C36.0499 96.8663 35.2499 97.4663 34.4499 97.9663C32.8499 98.8663 30.9499 99.2663 29.0499 99.4663Z" fill="#FF647C"/>
<path d="M38.9499 107.366C38.7499 106.466 38.1499 105.766 37.4499 105.266C36.7499 104.766 35.9499 104.466 35.0499 104.266C33.3499 103.766 31.5499 103.666 29.6499 103.466C31.4499 103.166 33.3499 103.166 35.1499 103.666C36.0499 103.966 36.9499 104.266 37.6499 104.966C38.5499 105.466 39.0499 106.466 38.9499 107.366Z" fill="#FF647C"/>
<path d="M39.0499 124.266C40.6499 122.466 42.3499 120.666 43.5499 118.666C44.1499 117.666 44.6499 116.566 44.9499 115.466C45.1499 114.366 44.9499 113.166 44.3499 112.066C45.1499 112.966 45.6499 114.266 45.4499 115.566C45.3499 116.866 44.7499 117.966 44.1499 119.066C42.8499 121.066 41.0499 122.766 39.0499 124.266Z" fill="#FF647C"/>
<path d="M93.0499 178.266C95.7499 179.066 98.6499 174.466 95.7499 173.666C92.8499 172.866 89.9499 177.366 93.0499 178.266Z" fill="#FFCBD3"/>
</g>
<defs>
<clipPath id="clip0">
<rect width="176.5" height="179.7" fill="white" transform="translate(0.25 0.766266)"/>
</clipPath>
</defs>
</svg>
