<svg fill="none" height="262" viewBox="0 0 261 262" width="261" xmlns="http://www.w3.org/2000/svg"
    xmlns:xlink="http://www.w3.org/1999/xlink">
    <linearGradient id="a" gradientUnits="userSpaceOnUse" x1="130.558" x2="130.558" y1="142.627"
        y2="86.6392">
        <stop offset=".2211" stop-color="#f9d3b7" />
        <stop offset=".8593" stop-color="#d26c5e" />
    </linearGradient>
    <mask id="b" height="262" maskUnits="userSpaceOnUse" width="261" x="0" y="0">
        <circle cx="130.5" cy="131" fill="#c4c4c4" r="130" />
    </mask>
    <g mask="url(#b)">
        <circle cx="130.5" cy="131" fill="none" r="130" />
        <path
            d="m206.013 253.314c-.548-9.868-8.406-15.715-12.426-24.121-5.665-11.878 4.386-21.928-8.589-33.624-12.974-11.512-6.396-16.811-14.07-26.131-7.858-9.32-23.756-6.578-23.756-6.578h-32.71s-15.8981-2.742-23.7557 6.578c-7.8577 9.32-1.0964 14.619-14.0707 26.131-12.9743 11.513-2.9238 21.563-8.5887 33.624-2.3755 4.934-6.213 8.771-8.954 13.522-13.1571 21.381 6.9439 48.243 29.9687 48.243h83.6934c9.137 0 18.091-3.838 24.487-10.416 6.761-7.31 9.319-17.543 8.771-27.228z"
            fill="#ff647c" />
        <path
            d="m130.543 146.596-15.715-2.558v35.085c0 13.888 14.618 17.177 15.715 17.543 1.096-.183 15.532-3.472 15.532-17.36 0-14.436 0-35.086 0-35.086z"
            fill="#f9d3b7" />
        <path
            d="m130.543 126.86-15.715-2.558v35.085c0 3.472.913 6.396 2.375 8.772 5.848 10.05 20.832 10.05 26.68 0 1.462-2.376 2.375-5.3 2.375-8.772 0-14.436 0-35.085 0-35.085z"
            fill="#f7b7a1" />
        <path
            d="m104.229 123.937s-.731-2.741-6.3961-2.741c-5.6649 0-3.8375 18.821 6.3961 18.821 10.05.183 6.213-13.339 0-16.08z"
            fill="#f4c19f" />
        <path
            d="m156.126 123.937s.731-2.741 6.396-2.741 3.837 18.821-6.396 18.821c-10.233.183-6.396-13.339 0-16.08z"
            fill="#f4c19f" />
        <path
            d="m130.543 165.783c-15.35 0-27.959-12.609-27.959-27.958v-21.198c0-15.35 12.609-27.9585 27.959-27.9585s27.959 12.6085 27.959 27.9585v21.198c0 15.349-12.609 27.958-27.959 27.958z"
            fill="url(#a)" />
        <path
            d="m154.298 136.363c0-8.589-10.598-5.848-23.755-5.848s-23.756-2.741-23.756 5.848c0 8.588 10.599.913 23.756.913s23.755 7.675 23.755-.913z"
            fill="#f7b7a1" />
        <path
            d="m168.186 113.521c-9.136-8.223-4.385-8.406-7.492-17.9085-3.106-9.5023-14.984-15.5326-14.984-15.5326s8.406-10.2333 0-14.8017-15.167-1.6446-15.167-1.6446-9.137-10.7815-20.101-.9137c-9.503 8.5886-2.01 15.5326 2.923 18.6391-3.472 2.1929-10.781 7.4922-12.974 14.4362-3.1063 9.5028 1.462 10.2328-7.6747 18.6388-9.1369 8.223 13.7047 14.071 9.6847 22.66-4.0199 8.588.548 12.06.548 12.06s-2.558-6.03 2.742-9.868c5.116-3.837 6.395-8.771-.366-16.994-6.7612-8.223 29.238-6.579 34.72-27.4105 5.482 20.8315 22.294 18.4565 15.533 26.6795-6.762 8.223-5.665 13.157-.366 16.995 5.117 3.837 2.741 9.867 2.741 9.867s4.569-3.472.548-12.06c-4.02-8.589 18.639-14.619 9.685-22.842z"
            fill="#081e29" />
        <path d="m114.828 123.206s5.299.548 9.867-3.655" stroke="#081e29" stroke-linecap="round"
            stroke-linejoin="round" stroke-miterlimit="10" stroke-width="2.06821" />
        <path d="m146.075 123.206s-5.299.548-9.867-3.655" stroke="#081e29" stroke-linecap="round"
            stroke-linejoin="round" stroke-miterlimit="10" stroke-width="2.06821" />
        <path d="m130.543 124.485s-5.117 12.791 0 12.791" stroke="#081e29" stroke-linecap="round"
            stroke-linejoin="round" stroke-miterlimit="10" stroke-width="1.03411" />
        <path
            d="m121.772 128.322c0 1.097-.914 2.193-2.193 2.193-1.097 0-2.193-.914-2.193-2.193 0-1.096.914-2.193 2.193-2.193s2.193.914 2.193 2.193z"
            fill="#081e29" />
        <path
            d="m141.141 130.515c1.212 0 2.193-.982 2.193-2.193s-.981-2.193-2.193-2.193c-1.211 0-2.192.982-2.192 2.193s.981 2.193 2.192 2.193z"
            fill="#081e29" />
        <path d="m125.792 143.672s4.568-.731 9.319 1.097" stroke="#081e29" stroke-linecap="round"
            stroke-linejoin="round" stroke-miterlimit="10" stroke-width="1.03411" />
        <path
            d="m154.116 128.871c1.645 0 2.924-1.28 2.924-2.924v-32.5274c0-1.6446-1.279-2.9238-2.924-2.9238s-2.924 1.2792-2.924 2.9238v32.5274c0 1.462 1.279 2.924 2.924 2.924z"
            fill="#f7eeea" />
        <path
            d="m149.182 126.495c0 2.741 2.193 4.934 4.934 4.934s4.934-2.193 4.934-4.934-2.193-4.934-4.934-4.934-4.934 2.193-4.934 4.934z"
            fill="#f7eeea" />
        <path
            d="m151.192 126.495c0 1.645 1.279 2.924 2.924 2.924s2.924-1.279 2.924-2.924-1.279-2.924-2.924-2.924-2.924 1.279-2.924 2.924z"
            fill="#ce4b59" />
        <path
            d="m155.212 93.7851c0-.731-.548-1.2792-1.279-1.2792s-1.279.5482-1.279 1.2792v6.213h2.376v-6.213z"
            fill="#dbd8d8" />
        <path
            d="m152.837 99.9981v25.5829c0 .731.548 1.279 1.279 1.279s1.279-.548 1.279-1.279v-25.5829z"
            fill="#ce4b59" />
        <g stroke="#081e29" stroke-linecap="round" stroke-linejoin="round" stroke-miterlimit="10">
            <path d="m154.299 95.9779h2.741" stroke-width=".93287" />
            <path d="m154.299 105.846h2.741" stroke-width=".93287" />
            <path d="m155.76 97.988h1.28" stroke-width=".93287" />
            <path d="m155.76 99.9982h1.28" stroke-width=".93287" />
            <path d="m155.76 103.836h1.28" stroke-width=".93287" />
            <path d="m155.76 102.008h1.28" stroke-width=".93287" />
            <path d="m154.299 115.713h2.741" stroke-width=".93287" />
            <path d="m155.76 107.856h1.28" stroke-width=".93287" />
            <path d="m155.76 109.866h1.28" stroke-width=".93287" />
            <path d="m155.76 113.703h1.28" stroke-width=".93287" />
            <path d="m155.76 111.693h1.28" stroke-width=".93287" />
            <path d="m144.613 161.946s-13.888 8.04-27.775.183" stroke-width="1.03411" />
        </g>
    </g>
</svg>